<svg width="80" height="68" viewBox="0 0 80 68" fill="none" xmlns="http://www.w3.org/2000/svg">
<g clip-path="url(#clip0_6_55)">
<path d="M39.5961 0.640429L9.16016 28.0242L39.5961 55.4079L70.032 28.0242L39.5961 0.640429Z" fill="white" stroke="#002953" stroke-miterlimit="10"/>
<path d="M32.638 14.0472L32.5251 21.7721V22.9919L46.1949 23.0935L46.3078 13.8439L49.4711 16.6899L39.5294 7.74524L29.3618 16.6899" stroke="#002953" stroke-miterlimit="10"/>
<path d="M20.663 25.0248L20.55 32.7498V33.9695L34.2198 34.0712L34.3327 24.8216L37.496 27.6676L27.5543 18.7229L17.3867 27.6676" stroke="#002953" stroke-miterlimit="10"/>
<path d="M44.5004 25.0248V32.7498V33.9695L58.1702 34.0712L58.2831 24.8216L61.4464 27.6676L51.3917 18.7229L41.2241 27.6676" stroke="#002953" stroke-miterlimit="10"/>
<path d="M32.638 35.1893L32.5251 42.9142V44.134L46.1949 44.2356L46.3078 34.986L49.4711 37.832L39.5294 28.8873L29.3618 37.832" stroke="#002953" stroke-miterlimit="10"/>
<path d="M50.7137 27.0577C50.7137 27.0577 54.8937 25.8379 54.5548 27.6675C54.2159 29.0906 52.8602 28.379 51.1656 27.4642C49.358 26.4478 43.5964 22.382 39.6423 17.4015C38.5126 15.8768 39.0774 14.0472 39.4164 13.7423C39.6423 13.539 40.885 13.1324 41.111 14.2505C41.2239 14.962 37.4958 19.6376 37.4958 19.6376C37.4958 19.6376 31.1693 26.0412 29.1358 27.0577C28.7968 27.261 28.5709 27.261 28.5709 27.1593C28.006 26.3462 26.1984 25.3297 24.7298 25.9396C24.2779 26.1429 23.3741 26.7527 24.8428 27.1593C26.4244 27.6675 28.006 27.4642 28.232 27.3626C28.4579 27.261 37.3828 33.6645 39.4164 37.0188C41.6758 40.678 39.9812 40.8813 39.3034 40.7796C39.3034 40.7796 36.705 41.0846 39.7553 36.7139C42.8056 32.3432 50.7137 27.0577 50.7137 27.0577V27.0577Z" stroke="#366CA2" stroke-miterlimit="10"/>
<path d="M0.791016 65.4589C0.791016 65.3911 0.791016 65.3911 0.791016 65.4589L1.58183 65.3573H1.6948C1.80778 65.3573 1.6948 65.3573 1.6948 65.3573L2.03372 67.1868C2.03372 67.1868 2.03372 67.2885 2.1467 67.2885C2.25967 67.2885 2.37264 67.3901 2.59859 67.3901C2.71157 67.3901 2.93751 67.4918 3.16346 67.4918C3.38941 67.4918 3.50238 67.4918 3.72833 67.5934H4.29319C5.08401 67.5934 5.76185 67.4918 6.43969 67.2885C7.00456 67.0852 7.56943 66.7803 8.02132 66.4753C8.47322 66.0688 8.81214 65.6622 8.92511 65.154C9.03808 64.6457 9.26403 64.0359 9.26403 63.3244V63.0194H3.27643C3.20112 63.0194 3.16346 62.9856 3.16346 62.9178V62.3079C3.16346 62.2402 3.20112 62.2063 3.27643 62.2063H8.92511C8.81214 61.5964 8.69916 60.9865 8.36024 60.4783C8.02132 59.9701 7.79537 59.4619 7.34348 59.157C6.89159 58.7504 6.43969 58.4454 5.87482 58.2422C5.30996 58.0389 4.63212 57.9372 3.95427 57.9372H3.61535C3.50238 57.9372 3.27643 57.9372 3.05049 58.0389C2.82454 58.1405 2.82454 58.0389 2.59859 58.1405C2.37264 58.2422 2.25967 58.2422 2.03372 58.2422C2.03372 58.2422 1.92075 58.2422 1.92075 58.3438L1.58183 60.275H0.903989C0.828673 60.275 0.791016 60.2412 0.791016 60.1734V57.6323C0.791016 57.6323 0.791016 57.5306 0.903989 57.5306C1.24291 57.5306 1.6948 57.429 2.25967 57.3274C2.82454 57.2257 3.50238 57.2257 4.29319 57.2257C5.30996 57.2257 6.10077 57.3274 6.89159 57.6323C7.6824 57.9372 8.36024 58.2422 8.92511 58.7504C9.48998 59.2586 9.94187 59.8685 10.1678 60.4783C10.5067 61.1898 10.7327 61.9013 10.7327 62.7145C10.7327 63.6293 10.5067 64.4424 10.1678 65.154C9.8289 65.8655 9.377 66.4753 8.69916 66.8819C8.02132 67.2885 7.34348 67.6951 6.55267 67.8984C5.76185 68.1016 4.85806 68.2033 3.95427 68.2033H3.16346C2.82454 68.2033 2.59859 68.1016 2.37264 68.1016C2.03372 68.1016 1.80778 68 1.58183 68C1.35588 68 1.12994 67.8984 0.903989 67.8984C0.828673 67.8984 0.791016 67.8645 0.791016 67.7967V65.4589Z" fill="#3D5D99"/>
<path d="M16.4943 57.429C17.6241 57.429 18.4149 57.5306 19.0927 57.7339C20.5614 58.1405 21.2392 59.0553 21.2392 60.4783C21.2392 61.3931 20.7873 62.2062 19.8836 62.8161C19.0927 63.3243 18.076 63.6293 17.0592 63.6293L15.2516 63.3243V67.3901C15.2516 67.3901 15.2516 67.4917 15.3646 67.4917L17.0592 67.5934C17.1345 67.5934 17.1722 67.6273 17.1722 67.695V68.1016C17.1722 68.1694 17.1345 68.2032 17.0592 68.2032H12.2014C12.126 68.2032 12.0884 68.1694 12.0884 68.1016V67.695C12.0884 67.6273 12.126 67.5934 12.2014 67.5934L13.67 67.4917C13.7453 67.4917 13.783 67.4579 13.783 67.3901V58.2421C13.783 58.1743 13.7453 58.1405 13.67 58.1405L12.2014 58.0388C12.126 58.0388 12.0884 58.0049 12.0884 57.9372V57.5306C12.0884 57.4628 12.126 57.429 12.2014 57.429H16.4943ZM15.3646 58.2421C15.2893 58.2421 15.2893 58.2421 15.3646 58.2421L15.2516 62.8161C15.2516 62.8839 15.2893 62.9177 15.3646 62.9177H16.3814C18.4149 62.9177 19.5446 62.1046 19.5446 60.4783C19.5446 59.6651 19.2057 59.0553 18.5279 58.7503C17.963 58.4454 17.1722 58.2421 16.2684 58.2421H15.3646Z" fill="#3D5D99"/>
<path d="M29.4864 68.1017C29.4111 68.1017 29.4111 68.1017 29.4864 68.1017L29.3734 67.5935C29.3734 67.5257 29.4111 67.4918 29.4864 67.4918L30.8421 67.3902H30.9551V67.2885L29.5994 64.1376H25.5323L24.2896 67.3902C24.2896 67.4579 24.3273 67.4918 24.4026 67.4918L25.7583 67.5935C25.8336 67.5935 25.8712 67.6273 25.8712 67.6951V68.1017C25.8712 68.1694 25.8336 68.2033 25.7583 68.2033H21.9172C21.8419 68.2033 21.8042 68.1694 21.8042 68.1017V67.6951C21.8042 67.6273 21.8419 67.5935 21.9172 67.5935L23.3858 67.4918H23.4988L28.0177 57.3274H28.6956L32.7626 67.4918H32.8756L34.2313 67.5935C34.2313 67.5935 34.3443 67.5935 34.3443 67.6951V68.1017C34.3443 68.1694 34.3066 68.2033 34.2313 68.2033H29.4864V68.1017ZM27.7918 59.5636C27.7918 59.5636 27.6788 59.5636 27.7918 59.5636H27.6788L25.9842 63.3244C25.9842 63.3922 26.0219 63.426 26.0972 63.426H29.2605C29.3358 63.426 29.3734 63.3922 29.3734 63.3244L27.7918 59.5636Z" fill="#3D5D99"/>
<path d="M49.5955 57.429C49.5955 57.429 49.7084 57.5306 49.5955 57.429L49.7084 57.9372C49.7084 58.0049 49.6708 58.0388 49.5955 58.0388L48.1268 58.1405C48.0515 58.1405 48.0138 58.1743 48.0138 58.2421V62.2062C48.0138 62.274 48.0515 62.3079 48.1268 62.3079C48.4657 62.3079 48.8046 62.3079 49.0306 62.2062C49.2565 62.1046 49.5955 62.0029 49.8214 61.7997C50.0474 61.5964 50.2733 61.4947 50.3863 61.1898C50.6122 60.9865 50.7252 60.6816 50.9511 60.3766L51.8549 58.7503C51.9679 58.4454 52.1938 58.2421 52.3068 58.0388C52.5328 57.8355 52.6457 57.6322 52.8717 57.5306C53.0976 57.429 53.2106 57.3273 53.4366 57.2257C53.6625 57.124 53.8885 57.124 54.0014 57.124H54.3403C54.4533 57.124 54.5663 57.124 54.6793 57.2257C54.7922 57.2257 54.9052 57.3273 55.0182 57.3273C55.1312 57.429 55.2441 57.429 55.2441 57.5306V57.7339L54.3403 58.7503C54.3403 58.852 54.2274 58.852 54.2274 58.7503C54.1144 58.6487 54.0014 58.547 53.8885 58.547C53.7755 58.547 53.6625 58.4454 53.5495 58.4454C53.3236 58.4454 53.2106 58.547 52.9847 58.6487C52.7587 58.7503 52.6457 59.0553 52.4198 59.3602L51.9679 60.1734C51.8549 60.3766 51.742 60.6816 51.516 60.8849C51.403 61.0881 51.1771 61.2914 51.0641 61.4947C50.8382 61.698 50.7252 61.9013 50.4992 62.0029C50.2733 62.1046 50.1603 62.3079 49.9344 62.3079C50.1603 62.4095 50.3863 62.4095 50.6122 62.5112C50.8382 62.6128 51.0641 62.7145 51.2901 62.9177C51.516 63.121 51.742 63.3243 51.8549 63.5276C52.0809 63.7309 52.1939 64.0358 52.4198 64.3408L54.1144 67.1868L54.2274 67.2884L55.4701 67.3901C55.5454 67.3901 55.5831 67.424 55.5831 67.4917V67.8983C55.5831 67.9661 55.5454 68 55.4701 68H52.6457C52.6457 68 52.5328 68 52.5328 67.8983L50.9511 64.849C50.7252 64.3408 50.4992 64.0358 50.1603 63.7309C49.9344 63.426 49.7084 63.2227 49.3695 63.121C49.1436 63.0194 48.9176 62.9177 48.6917 62.8161C48.4657 62.7145 48.2398 62.7145 48.0138 62.7145C47.9385 62.7145 47.9009 62.7483 47.9009 62.8161V67.1868C47.9009 67.2546 47.9385 67.2884 48.0138 67.2884L49.4825 67.3901C49.5578 67.3901 49.5955 67.424 49.5955 67.4917V67.8983C49.5955 67.9661 49.5578 68 49.4825 68H44.7376C44.6623 68 44.6246 67.9661 44.6246 67.8983V67.4917C44.6246 67.424 44.6623 67.3901 44.7376 67.3901L46.2063 67.2884C46.2816 67.2884 46.3192 67.2546 46.3192 67.1868V62.8161C46.3192 62.7483 46.2816 62.7145 46.2063 62.7145C45.9803 62.7145 45.7544 62.7145 45.5284 62.8161C45.3025 62.9177 45.0765 62.9177 44.8506 63.121C44.6246 63.2227 44.3987 63.5276 44.0598 63.7309C43.8338 64.0358 43.6079 64.3408 43.2689 64.849L41.6873 67.8983L41.5743 68H38.863C38.7877 68 38.75 67.9661 38.75 67.8983V67.4917C38.75 67.424 38.7877 67.3901 38.863 67.3901L40.1057 67.2884C40.181 67.2884 40.2187 67.2546 40.2187 67.1868L41.8003 64.3408C42.0262 64.0358 42.1392 63.7309 42.3652 63.5276C42.5911 63.3243 42.817 63.121 42.93 62.9177C43.156 62.7145 43.3819 62.6128 43.6079 62.5112C43.8338 62.4095 44.0598 62.3079 44.2857 62.3079C44.1727 62.2062 43.9468 62.1046 43.7208 62.0029C43.4949 61.9013 43.3819 61.698 43.156 61.4947C42.93 61.2914 42.817 61.0881 42.7041 60.8849C42.5911 60.6816 42.3652 60.3766 42.2522 60.1734V59.4618C42.1392 59.1569 41.9133 58.852 41.6873 58.7503C41.4614 58.6487 41.3484 58.547 41.1224 58.547C41.0095 58.547 40.8965 58.547 40.7835 58.6487C40.6705 58.7503 40.5576 58.7503 40.4446 58.852H40.3316L39.4278 57.8355V57.6322L39.6538 57.429C39.7668 57.3273 39.8797 57.3273 39.9927 57.3273C40.1057 57.3273 40.2187 57.2257 40.3316 57.2257H40.6706C40.8965 57.2257 41.1224 57.2257 41.2354 57.3273C41.4614 57.429 41.5743 57.5306 41.8003 57.6322C42.0262 57.7339 42.1392 57.9372 42.3652 58.1405C42.5911 58.3438 42.7041 58.6487 42.93 58.852L43.8338 60.4783C43.9468 60.7832 44.1727 60.9865 44.3987 61.2914C44.6246 61.4947 44.7376 61.698 44.9635 61.9013C45.1895 62.1046 45.4154 62.2062 45.6414 62.3079C45.8673 62.4095 46.2063 62.4095 46.5452 62.4095C46.5452 62.4095 46.6581 62.4095 46.6581 62.3079V58.3438C46.6581 58.276 46.6205 58.2421 46.5452 58.2421L45.0765 58.1405C45.0012 58.1405 44.9635 58.1066 44.9635 58.0388V57.6322C44.9635 57.5645 45.0012 57.5306 45.0765 57.5306H49.5955V57.429Z" fill="#3D5D99"/>
<path d="M61.2319 57.429C61.3449 57.429 61.3449 57.5306 61.2319 57.429L61.3449 57.9372C61.3449 58.005 61.3072 58.0389 61.2319 58.0389L59.7632 58.1405C59.6879 58.1405 59.6503 58.1744 59.6503 58.2422V62.2063C59.6503 62.274 59.6879 62.3079 59.7632 62.3079C60.1022 62.3079 60.4411 62.3079 60.78 62.2063C61.1189 62.1046 61.3449 62.003 61.5708 61.9013C61.7968 61.6981 62.0227 61.5964 62.2486 61.2915C62.4746 61.0882 62.5876 60.7833 62.8135 60.4783L63.7173 58.852C63.8303 58.5471 64.0562 58.3438 64.1692 58.1405C64.2822 57.9372 64.5081 57.7339 64.7341 57.6323C64.96 57.5306 65.073 57.429 65.2989 57.3274C65.5249 57.2257 65.6379 57.2257 65.8638 57.2257H66.2027C66.3157 57.2257 66.4287 57.2257 66.5416 57.3274C66.6546 57.3274 66.7676 57.429 66.8806 57.429C66.9935 57.5306 67.1065 57.5306 67.1065 57.6323V57.8356L66.2027 58.852C66.2027 58.852 66.2027 58.9537 66.0897 58.9537H65.9768C65.8638 58.852 65.7508 58.7504 65.6379 58.6487C65.5249 58.5471 65.4119 58.5471 65.2989 58.5471C65.073 58.5471 64.96 58.6487 64.7341 58.7504C64.5081 58.852 64.3951 59.1569 64.1692 59.4619L63.7173 60.275C63.6043 60.4783 63.4914 60.7833 63.2654 60.9865C63.0395 61.1898 62.9265 61.4948 62.8135 61.5964C62.7005 61.6981 62.4746 62.003 62.2486 62.1046C62.0227 62.2063 61.9097 62.3079 61.6838 62.4096C61.9097 62.5112 62.1357 62.5112 62.3616 62.6129C62.5876 62.7145 62.8135 62.8161 63.0395 63.0194C63.2654 63.2227 63.4914 63.426 63.6043 63.6293C63.7173 63.8326 63.9432 64.1375 64.1692 64.4425L65.8638 67.2885L65.9768 67.3901L67.2195 67.4918C67.2948 67.4918 67.3325 67.5257 67.3325 67.5934V68C67.3325 68.0678 67.2948 68.1016 67.2195 68.1016H64.5081C64.5081 68.1016 64.3951 68.1016 64.3951 68L62.8135 64.9507C62.5876 64.4425 62.3616 64.1375 62.0227 63.8326C61.7968 63.5277 61.4578 63.3244 61.2319 63.2227C61.0059 63.1211 60.667 63.0194 60.4411 62.9178C60.2151 62.9178 59.9892 62.8161 59.7632 62.8161C59.6879 62.8161 59.6503 62.85 59.6503 62.9178V67.2885C59.6503 67.3562 59.6879 67.3901 59.7632 67.3901L61.2319 67.4918C61.3072 67.4918 61.3449 67.5257 61.3449 67.5934V68C61.3449 68.0678 61.3072 68.1016 61.2319 68.1016H56.487C56.4117 68.1016 56.374 68.0678 56.374 68V67.5934C56.374 67.5257 56.4117 67.4918 56.487 67.4918L57.9557 67.3901C58.031 67.3901 58.0686 67.3562 58.0686 67.2885V58.1405C58.0686 58.0727 58.031 58.0389 57.9557 58.0389L56.487 57.9372C56.4117 57.9372 56.374 57.9033 56.374 57.8356V57.429C56.374 57.3612 56.4117 57.3274 56.487 57.3274H61.2319V57.429Z" fill="#3D5D99"/>
<path d="M72.6422 57.429C72.7552 57.429 72.7552 57.5306 72.6422 57.429L72.7552 57.9372C72.7552 58.0049 72.7175 58.0388 72.6422 58.0388L71.3995 58.1405H71.2865V58.2421L73.659 61.698L76.3703 58.2421C76.3703 58.1743 76.3327 58.1405 76.2574 58.1405L75.1276 58.0388C75.0523 58.0388 75.0147 58.0049 75.0147 57.9372V57.5306C75.0147 57.4628 75.0523 57.429 75.1276 57.429H78.8558C78.9311 57.429 78.9687 57.4628 78.9687 57.5306V57.9372C78.9687 58.0049 78.9311 58.0388 78.8558 58.0388L77.5001 58.1405H77.3871L74.1109 62.4095L77.5001 67.3901H77.6131L79.0817 67.4917C79.157 67.4917 79.1947 67.5256 79.1947 67.5934V68C79.1947 68.0677 79.157 68.1016 79.0817 68.1016H74.3368C74.2615 68.1016 74.2238 68.0677 74.2238 68V67.5934C74.2238 67.5256 74.2615 67.4917 74.3368 67.4917L75.5795 67.3901H75.6925V67.2884L73.0941 63.5276L70.1568 67.2884V67.3901H70.2698L71.5125 67.4917C71.5878 67.4917 71.6255 67.5256 71.6255 67.5934V68C71.6255 68.0677 71.5878 68.1016 71.5125 68.1016H67.7844C67.709 68.1016 67.6714 68.0677 67.6714 68V67.5934C67.6714 67.5256 67.709 67.4917 67.7844 67.4917L69.14 67.3901H69.253L72.7552 62.8161L69.479 58.2421H69.366L67.8973 58.1405C67.822 58.1405 67.7844 58.1066 67.7844 58.0388V57.6322C67.7844 57.5645 67.822 57.5306 67.8973 57.5306H72.6422V57.429Z" fill="#3D5D99"/>
</g>
<defs>
<clipPath id="clip0_6_55">
<rect width="79.0815" height="68" fill="white"/>
</clipPath>
</defs>
</svg>
